<?xml version="1.0" standalone="no"?>
<!DOCTYPE svg PUBLIC "-//W3C//DTD SVG 20010904//EN"
 "http://www.w3.org/TR/2001/REC-SVG-20010904/DTD/svg10.dtd">
<svg version="1.0" xmlns="http://www.w3.org/2000/svg"
 width="318.000000pt" height="159.000000pt" viewBox="0 0 318.000000 159.000000"
 preserveAspectRatio="xMidYMid meet">

<g transform="translate(0.000000,159.000000) scale(0.100000,-0.100000)"
fill="#000000" stroke="none">
<path d="M690 985 c-129 -58 -165 -217 -74 -323 121 -142 353 -57 354 128 0
115 -75 198 -186 206 -40 3 -70 0 -94 -11z m157 -90 c13 -14 23 -30 23 -36 0
-16 -57 -10 -64 7 -9 24 -71 15 -71 -11 0 -14 13 -24 49 -36 62 -23 86 -45 86
-81 0 -73 -123 -105 -181 -47 -27 27 -25 59 4 59 12 0 28 -9 35 -20 17 -27 68
-27 82 0 12 22 2 28 -85 56 -16 5 -36 22 -45 37 -13 24 -13 30 0 54 33 59 124
69 167 18z"/>
<path d="M2250 900 c0 -13 7 -20 20 -20 13 0 20 7 20 20 0 13 -7 20 -20 20
-13 0 -20 -7 -20 -20z"/>
<path d="M1080 890 c-28 -28 -13 -60 41 -87 24 -11 44 -27 44 -35 0 -19 -54
-23 -61 -4 -7 19 -44 21 -44 3 0 -46 106 -66 134 -26 22 31 6 61 -45 86 -24
11 -44 27 -44 35 0 19 44 23 51 4 7 -17 44 -22 44 -6 0 21 -41 50 -70 50 -17
0 -39 -9 -50 -20z"/>
<path d="M1580 880 c0 -27 -2 -30 -19 -20 -28 14 -38 13 -61 -10 -22 -22 -27
-78 -10 -110 9 -16 21 -19 70 -19 l60 1 0 94 c0 87 -1 94 -20 94 -16 0 -20 -7
-20 -30z m-10 -61 c18 -32 4 -71 -23 -67 -26 4 -36 50 -16 74 16 19 26 18 39
-7z"/>
<path d="M1799 908 c-1 -2 -2 -45 -3 -95 -2 -88 -1 -93 18 -93 20 0 21 5 19
75 -1 41 0 75 1 75 2 0 16 -34 31 -75 l28 -75 39 0 39 0 -3 92 c-2 78 -6 93
-20 96 -15 3 -18 -7 -20 -75 l-3 -78 -30 78 c-29 74 -31 77 -62 77 -18 0 -34
-1 -34 -2z"/>
<path d="M1240 881 c0 -11 -6 -22 -12 -24 -10 -4 -10 -7 -1 -14 6 -5 13 -33
15 -63 3 -47 6 -55 24 -58 19 -3 20 1 16 59 -3 44 -1 60 7 55 6 -4 11 -1 11 8
0 9 -4 16 -10 16 -5 0 -10 9 -10 20 0 13 -7 20 -20 20 -13 0 -20 -7 -20 -19z"/>
<path d="M2163 888 c2 -7 -2 -21 -11 -30 -10 -12 -11 -18 -4 -18 7 0 12 -17
12 -44 0 -59 8 -76 34 -76 19 0 21 4 18 50 -3 32 1 56 10 67 10 13 10 17 1 20
-7 3 -13 13 -13 24 0 14 -7 19 -26 19 -16 0 -24 -5 -21 -12z"/>
<path d="M1416 862 c-3 -3 -6 -27 -6 -54 0 -35 -4 -50 -16 -55 -22 -8 -34 14
-34 65 0 35 -3 42 -19 42 -17 0 -19 -6 -17 -52 5 -79 4 -78 29 -87 15 -6 29
-5 45 5 12 8 22 10 22 4 0 -5 9 -10 20 -10 17 0 19 7 19 69 0 59 -3 70 -19 74
-10 3 -21 2 -24 -1z"/>
<path d="M1729 844 c-5 -14 -9 -31 -9 -39 0 -31 -18 -22 -29 15 -9 29 -17 40
-31 40 -24 0 -25 3 1 -72 18 -49 20 -68 11 -90 -9 -26 -8 -28 13 -28 16 0 26
8 33 28 5 15 21 57 35 94 25 65 25 66 6 71 -15 4 -23 -1 -30 -19z"/>
<path d="M2010 848 c-27 -29 -27 -89 0 -113 28 -25 88 -25 106 0 21 28 18 91
-6 115 -27 27 -74 26 -100 -2z m68 -20 c17 -17 15 -63 -4 -79 -14 -11 -18 -10
-30 6 -8 10 -14 28 -14 40 0 20 17 45 30 45 3 0 11 -5 18 -12z"/>
<path d="M2250 793 c0 -66 2 -73 20 -73 18 0 20 7 20 73 0 66 -2 73 -20 73
-18 0 -20 -7 -20 -73z"/>
<path d="M2340 852 c-17 -14 -23 -29 -23 -62 0 -49 27 -80 70 -80 34 0 73 42
73 80 0 38 -39 80 -73 80 -14 0 -35 -8 -47 -18z m65 -22 c12 -19 8 -72 -6 -80
-29 -18 -50 30 -33 74 7 18 30 21 39 6z"/>
<path d="M2536 861 c-3 -4 -17 -6 -31 -3 -25 4 -25 4 -25 -67 0 -64 2 -71 20
-71 17 0 20 7 20 43 0 50 12 72 34 64 12 -5 16 -20 16 -57 0 -43 3 -50 20 -50
18 0 20 7 20 65 0 53 -3 66 -19 75 -24 12 -48 13 -55 1z"/>
</g>
</svg>
